{
	"asset":{
		"generator":"Khronos glTF Blender I/O v3.5.30",
		"version":"2.0"
	},
	"scene":0,
	"scenes":[
		{
			"name":"Scene",
			"nodes":[
				0,
				1
			]
		}
	],
	"nodes":[
		{
			"mesh":0,
			"name":"bag",
			"translation":[
				0,
				-0.028755925595760345,
				0
			]
		},
		{
			"mesh":1,
			"name":"handle",
			"translation":[
				0,
				-0.028755925595760345,
				0
			]
		}
	],
	"materials":[
		{
			"doubleSided":true,
			"name":"Material",
			"pbrMetallicRoughness":{
				"baseColorFactor":[
					0.800000011920929,
					0.800000011920929,
					0.800000011920929,
					1
				],
				"metallicFactor":0,
				"roughnessFactor":0.4000000059604645
			}
		}
	],
	"meshes":[
		{
			"name":"Cube",
			"primitives":[
				{
					"attributes":{
						"POSITION":0,
						"TEXCOORD_0":1,
						"NORMAL":2
					},
					"indices":3,
					"material":0
				}
			]
		},
		{
			"name":"BezierCurve",
			"primitives":[
				{
					"attributes":{
						"POSITION":4,
						"TEXCOORD_0":5,
						"NORMAL":6
					},
					"indices":7
				}
			]
		}
	],
	"accessors":[
		{
			"bufferView":0,
			"componentType":5126,
			"count":302,
			"max":[
				0.954076886177063,
				2.669560194015503,
				0.48713064193725586
			],
			"min":[
				-1.045923113822937,
				0.03990483283996582,
				-0.48713022470474243
			],
			"type":"VEC3"
		},
		{
			"bufferView":1,
			"componentType":5126,
			"count":302,
			"type":"VEC2"
		},
		{
			"bufferView":2,
			"componentType":5126,
			"count":302,
			"type":"VEC3"
		},
		{
			"bufferView":3,
			"componentType":5123,
			"count":996,
			"type":"SCALAR"
		},
		{
			"bufferView":4,
			"componentType":5126,
			"count":1586,
			"max":[
				0.3954991400241852,
				3.0375120639801025,
				0.3285273313522339
			],
			"min":[
				-0.3851119577884674,
				2.306184768676758,
				-0.3285273313522339
			],
			"type":"VEC3"
		},
		{
			"bufferView":5,
			"componentType":5126,
			"count":1586,
			"type":"VEC2"
		},
		{
			"bufferView":6,
			"componentType":5126,
			"count":1586,
			"type":"VEC3"
		},
		{
			"bufferView":7,
			"componentType":5123,
			"count":8640,
			"type":"SCALAR"
		}
	],
	"bufferViews":[
		{
			"buffer":0,
			"byteLength":3624,
			"byteOffset":0,
			"target":34962
		},
		{
			"buffer":0,
			"byteLength":2416,
			"byteOffset":3624,
			"target":34962
		},
		{
			"buffer":0,
			"byteLength":3624,
			"byteOffset":6040,
			"target":34962
		},
		{
			"buffer":0,
			"byteLength":1992,
			"byteOffset":9664,
			"target":34963
		},
		{
			"buffer":0,
			"byteLength":19032,
			"byteOffset":11656,
			"target":34962
		},
		{
			"buffer":0,
			"byteLength":12688,
			"byteOffset":30688,
			"target":34962
		},
		{
			"buffer":0,
			"byteLength":19032,
			"byteOffset":43376,
			"target":34962
		},
		{
			"buffer":0,
			"byteLength":17280,
			"byteOffset":62408,
			"target":34963
		}
	],
	"buffers":[
		{
			"byteLength":79688,
			"uri":"data:application/octet-stream;base64,"
		}
	]
}
